# xmcd
#
# Track frame offsets:
#	150
#	17458
#	34170
#	48525
#	62756
#	75885
#	91833
#	109288
#	122981
#	135177
#	151526
#	166756
#	184032
#	198223
#	212215
#	230889
#	251063
#	270026
#	281731
#	292027
#
# Disc length: 4154 seconds
#
# Revision: 0
# Processed by: cddbd v1.5.1PL0 Copyright (c) Steve Scherf et al.
# Submitted via: audiograbber 1.83.01
#
DISCID=0b103814
DTITLE=Nükhet Duru - Bir Nefes Gibi'ler
DYEAR=1900
DGENRE=
TTITLE0=Bir Nefes Gibi
TTITLE1=Melankoli
TTITLE2=Gerisi Viz Gelir
TTITLE3=Ben Sana Vurgunum
TTITLE4=Anilar
TTITLE5=Kulis
TTITLE6=Iki Gözyasi
TTITLE7=Haydi Hayat
TTITLE8=Hersey Yolunda
TTITLE9=Ben Bir Kadinim
TTITLE10=Beni Benimle Birak
TTITLE11=Kaldirimlar
TTITLE12=Günes
TTITLE13=Istanbul Istanbul
TTITLE14=Al Beni De Yanina
TTITLE15=Destina
TTITLE16=Harp Ve Sulh
TTITLE17=Cambaz
TTITLE18=Canim Yandi
TTITLE19=Mahmure
EXTD=
EXTT0=
EXTT1=
EXTT2=
EXTT3=
EXTT4=
EXTT5=
EXTT6=
EXTT7=
EXTT8=
EXTT9=
EXTT10=
EXTT11=
EXTT12=
EXTT13=
EXTT14=
EXTT15=
EXTT16=
EXTT17=
EXTT18=
EXTT19=
PLAYORDER=
